<svg width="28" height="28" viewBox="0 0 28 28" fill="none" xmlns="http://www.w3.org/2000/svg">
<path d="M17.7333 0H0V17.7333H10.2667V27.5333H28V9.8H17.7333V0ZM7.71779 4.2L4.78876 12.5592H6.76667L7.24302 11.2H10.2667V15.8667H1.86667V1.86667H15.8667V9.8H11.9777L10.0158 4.2H7.71779ZM9.83628 9.33333H7.89705L8.86667 6.56612L9.83628 9.33333ZM26.1333 11.6667V25.6667H12.1333V11.6667H26.1333Z" fill="url(#paint0_linear_24_114)"/>
<path d="M17.5836 20.0947C17.7621 20.3814 17.9587 20.6565 18.1721 20.9183C17.4954 21.2833 16.727 21.466 15.8667 21.4667V23.3333C17.2749 23.3333 18.5331 22.9595 19.6 22.2353C20.6669 22.9595 21.9251 23.3333 23.3334 23.3333V21.4667C22.4749 21.4667 21.7064 21.2838 21.028 20.9179C21.2414 20.6563 21.438 20.3813 21.6165 20.0947C22.1545 19.22 22.5501 18.2655 22.7886 17.2667H23.8V15.4H20.5334V14H18.6667V15.4H15.4V17.2667H16.4114C16.6499 18.2655 17.0456 19.22 17.5836 20.0947ZM20.8559 17.2667C20.6628 17.9127 20.3863 18.5308 20.0334 19.1053C19.9016 19.3172 19.7568 19.5207 19.6 19.7148C19.4546 19.535 19.3196 19.3471 19.1958 19.1518C18.8285 18.5645 18.542 17.9304 18.3439 17.2667H20.8559Z" fill="url(#paint1_linear_24_114)"/>
<defs>
<linearGradient id="paint0_linear_24_114" x1="14" y1="0" x2="14" y2="27.5333" gradientUnits="userSpaceOnUse">
<stop stop-color="#350077"/>
<stop offset="1" stop-color="#8851CE"/>
</linearGradient>
<linearGradient id="paint1_linear_24_114" x1="19.6" y1="14" x2="19.6" y2="23.3333" gradientUnits="userSpaceOnUse">
<stop stop-color="#350077"/>
<stop offset="1" stop-color="#8851CE"/>
</linearGradient>
</defs>
</svg>
