<svg width="53" height="53" viewBox="0 0 53 53" fill="none" xmlns="http://www.w3.org/2000/svg">
<path d="M49.8885 35.8667C50.4325 34.5707 48.8778 33.4667 47.5738 34.0427C44.9673 35.1869 42.1509 35.7754 39.3044 35.7707C28.1443 35.7707 19.0988 26.9067 19.0988 15.9708C19.0947 12.2784 20.1438 8.66139 22.1229 5.54415C22.8802 4.34949 21.9709 2.69616 20.5842 3.04816C9.89341 5.77615 2 15.3015 2 26.6321C2 40.0907 13.1334 51 26.8696 51C37.2697 51 46.1764 44.7467 49.8885 35.8667Z" stroke="#131215" stroke-width="4"/>
<path d="M35.6296 3.27482C34.2163 2.33082 32.5309 4.01615 33.4723 5.42948L35.1523 7.94947C35.8338 8.97124 36.1975 10.1719 36.1975 11.4001C36.1975 12.6283 35.8338 13.829 35.1523 14.8508L33.4723 17.3708C32.5309 18.7841 34.2189 20.4694 35.6323 19.5254L38.1496 17.8454C39.1714 17.1639 40.3721 16.8002 41.6004 16.8002C42.8286 16.8002 44.0293 17.1639 45.051 17.8454L47.5711 19.5254C48.9844 20.4694 50.6698 18.7841 49.7258 17.3708L48.0457 14.8508C47.3642 13.829 47.0005 12.6283 47.0005 11.4001C47.0005 10.1719 47.3642 8.97124 48.0457 7.94947L49.7258 5.42948C50.6698 4.01615 48.9844 2.33082 47.5684 3.27482L45.051 4.95482C44.0293 5.63633 42.8286 6.00002 41.6004 6.00002C40.3721 6.00002 39.1714 5.63633 38.1496 4.95482L35.6296 3.27482V3.27482Z" stroke="#131215" stroke-width="4"/>
</svg>
