<svg width="26" height="22" viewBox="0 0 26 22" fill="none" xmlns="http://www.w3.org/2000/svg">
<path d="M1 3.5C1 3.5 2.8 1 7 1C11.2 1 13 3.5 13 3.5V21C13 21 11.2 19.75 7 19.75C2.8 19.75 1 21 1 21V3.5ZM13 3.5C13 3.5 14.8 1 19 1C23.2 1 25 3.5 25 3.5V21C25 21 23.2 19.75 19 19.75C14.8 19.75 13 21 13 21V3.5Z" stroke="url(#paint0_linear_24_110)" stroke-width="2" stroke-linecap="round" stroke-linejoin="round"/>
<defs>
<linearGradient id="paint0_linear_24_110" x1="13" y1="1" x2="13" y2="21" gradientUnits="userSpaceOnUse">
<stop stop-color="#145601"/>
<stop offset="1" stop-color="#70CF54"/>
</linearGradient>
</defs>
</svg>
