<svg width="40" height="41" viewBox="0 0 40 41" fill="none" xmlns="http://www.w3.org/2000/svg">
<path d="M34.075 34.0887H28.1588V24.805C28.1588 22.5912 28.1125 19.7463 25.065 19.7463C21.98 19.7463 21.51 22.1475 21.51 24.6412V34.0875H15.5863V14.9987H21.2762V17.6025H21.3525C22.1475 16.0987 24.0812 14.5175 26.9662 14.5175C32.9675 14.5175 34.0812 18.4688 34.0812 23.6063V34.0875L34.075 34.0887ZM8.89375 12.39C8.44159 12.3902 7.99385 12.3011 7.57616 12.128C7.15847 11.9548 6.77904 11.701 6.45961 11.381C6.14017 11.061 5.88701 10.6811 5.71463 10.2631C5.54224 9.84506 5.45401 9.39715 5.455 8.945C5.45574 8.26444 5.65826 7.59938 6.03695 7.03391C6.41564 6.46844 6.9535 6.02795 7.58252 5.76814C8.21153 5.50833 8.90346 5.44086 9.57082 5.57427C10.2382 5.70767 10.851 6.03596 11.3318 6.51763C11.8126 6.9993 12.1398 7.61271 12.272 8.28031C12.4041 8.94791 12.3354 9.63971 12.0745 10.2683C11.8135 10.8968 11.3721 11.4339 10.8059 11.8115C10.2397 12.1892 9.57431 12.3905 8.89375 12.39ZM11.8612 34.0887H5.925V15H11.8612V34.0887ZM37.045 0H2.95C1.32125 0 0 1.28875 0 2.88375V37.1175C0 38.7125 1.32125 40.0013 2.95 40.0013H37.0387C38.665 40.0013 40 38.7125 40 37.1175V2.88375C40 1.28875 38.665 0 37.0387 0H37.045Z" fill="#F0EDF4"/>
</svg>
