<svg width="44" height="45" viewBox="0 0 44 45" fill="none" xmlns="http://www.w3.org/2000/svg">
<path d="M37.4825 37.4976H30.9746V27.2855C30.9746 24.8504 30.9237 21.7209 27.5715 21.7209C24.178 21.7209 23.661 24.3622 23.661 27.1054V37.4963H17.1449V16.4986H23.4039V19.3627H23.4878C24.3623 17.7086 26.4894 15.9693 29.6629 15.9693C36.2643 15.9693 37.4894 20.3156 37.4894 25.9669V37.4963L37.4825 37.4976ZM9.78312 13.629C9.28575 13.6292 8.79323 13.5312 8.33377 13.3408C7.87431 13.1503 7.45694 12.8711 7.10557 12.5191C6.75419 12.1671 6.47572 11.7492 6.28609 11.2894C6.09646 10.8296 5.99941 10.3369 6.0005 9.8395C6.00132 9.09088 6.22409 8.35932 6.64065 7.7373C7.05721 7.11528 7.64885 6.63074 8.34077 6.34495C9.03269 6.05916 9.79381 5.98494 10.5279 6.13169C11.262 6.27844 11.9361 6.63956 12.465 7.16939C12.9938 7.69923 13.3537 8.37398 13.4991 9.10834C13.6446 9.8427 13.569 10.6037 13.2819 11.2951C12.9949 11.9865 12.5093 12.5772 11.8865 12.9927C11.2637 13.4081 10.5317 13.6295 9.78312 13.629ZM13.0474 37.4976H6.5175V16.5H13.0474V37.4976ZM40.7495 0H3.245C1.45337 0 0 1.41762 0 3.17212V40.8293C0 42.5838 1.45337 44.0014 3.245 44.0014H40.7426C42.5315 44.0014 44 42.5838 44 40.8293V3.17212C44 1.41762 42.5315 0 40.7426 0H40.7495Z" fill="#131215"/>
</svg>
